<svg width="40" height="40" viewBox="0 0 40 40" fill="none" xmlns="http://www.w3.org/2000/svg"><title>Atlas logo</title><g clip-path="url(#product-icon-atlas-SiteMobileMenu-a)"><path d="M20.51.3c1 0 1.92.57 2.36 1.47l8.22 16.42 8.65 17.31a2.64 2.64 0 0 1-1.65 3.73l-.17.04c-.12.03-.24.04-.36.05h-.18L20.5 35.99 9.94 18.19l8.2-16.42A2.64 2.64 0 0 1 20.52.3z" fill="#FB0"></path><path d="M20.51.3c1 0 1.92.57 2.36 1.47l8.22 16.42L20.5 35.98 3.65 39.33a2.64 2.64 0 0 1-2.37-3.83l8.66-17.3 8.2-16.43A2.64 2.64 0 0 1 20.52.3z" fill="url(#product-icon-atlas-SiteMobileMenu-b)"></path><path d="M20.51.3c1 0 1.92.57 2.36 1.47l8.22 16.42L20.5 35.98 9.94 18.19l8.2-16.42A2.64 2.64 0 0 1 20.34.3h.18z" fill="url(#product-icon-atlas-SiteMobileMenu-c)"></path></g><defs><linearGradient id="product-icon-atlas-SiteMobileMenu-b" x1="16.03" y1="18.01" x2="15.94" y2="39.33" gradientUnits="userSpaceOnUse"><stop stop-color="#FFD748"></stop><stop offset=".54" stop-color="#FFCD48"></stop><stop offset="1" stop-color="#FFCB48"></stop></linearGradient><linearGradient id="product-icon-atlas-SiteMobileMenu-c" x1="20.51" y1="34.72" x2="20.51" y2="15.01" gradientUnits="userSpaceOnUse"><stop stop-color="#FFAD00"></stop><stop offset="1" stop-color="#FF7600"></stop></linearGradient><clipPath id="product-icon-atlas-SiteMobileMenu-a"><path fill="#fff" d="M0 0h40v40H0z"></path></clipPath></defs></svg>