<svg width="16" height="16" viewBox="0 0 16 16" xmlns="http://www.w3.org/2000/svg"><path d="M8 0a8 8 0 1 1 0 16A8 8 0 0 1 8 0zm.02 1A7.04 7.04 0 0 0 2 4.37l.9-.32c.08-.03.16 0 .2.07l.17.25a.17.17 0 0 0 .27 0l.7-.82.13-.25a.16.16 0 0 0-.08-.19l-.15-.1a.15.15 0 0 1 0-.24l.79-.5.27.14-.34.5L6 2.47a.17.17 0 0 1 .16 0l.34.24-1.3.54a.14.14 0 0 0-.07.09l-.22.32a.16.16 0 0 0 0 .22c.06.06.16.07.22 0l.49-.17h.07l.56.06c.03.02.08.02.11 0l.96-.71a.15.15 0 0 0 0-.22l-.53-.82a.16.16 0 0 1 0-.19.16.16 0 0 1 .18-.06l1.47-.24h.1l1 .5c.04.02.07.04.1.08l.1.27a.16.16 0 0 1-.12.2l-.7.11.5.33c.07.04.08.14.04.2l-.53.75a.17.17 0 0 1-.17.07l-.74-.11a.18.18 0 0 0-.13 0l-.96.7a.15.15 0 0 0-.05.18l.15.36c.03.07 0 .14-.06.18l-.19.17a.17.17 0 0 1-.24-.07l-.15-.34a.17.17 0 0 0-.26-.06l-.46.37a.16.16 0 0 0-.06.14l.1.66a.16.16 0 0 1-.15.18H5.3a.17.17 0 0 0-.18.1l-.2.96c0 .04-.03.1-.07.12L3.8 8.4a.14.14 0 0 0-.06.1l-.28 1.04a.14.14 0 0 0 0 .12l.83 1c.03.04.07.06.11.06l1.65.24c.06 0 .11.05.14.1l.58 1.33c.02.04.02.09 0 .12l-.18.45a.16.16 0 0 0 0 .16l.83.83c.04.04.1.06.17.05l1.65-.4a.16.16 0 0 0 .12-.16v-.32c0-.05.04-.1.09-.13l.49-.25a.16.16 0 0 0 .08-.14V11.68l.93-1.21a.16.16 0 0 0 .01-.2.16.16 0 0 0-.18-.05l-.42.1a.17.17 0 0 1-.18-.05L8.94 8.75l.24-.14a.17.17 0 0 1 .21 0l1.03 1.03c.06.06.16.06.23 0l.63-.54a.16.16 0 0 0 0-.24l-.72-.59.08-.23.83.28h.1l.64-.2a.18.18 0 0 1 .13 0l.5.26c.04.02.07.05.08.09l.3.82c.03.08.12.12.2.1l.25-.06a.16.16 0 0 0 .11-.19l-.21-.75V8.3l.26-.93a.17.17 0 0 1 .22-.08l.25.08c.24.12.47.24.7.38A7.01 7.01 0 0 0 8.02 1zm-.54 5.36c.05.01.1.05.12.1l.47.82a.2.2 0 0 0 .14.09l.94.08c.1 0 .17.09.17.18l.04.34a.18.18 0 0 1-.2.16l-1.2-.1c-.05-.01-.1.01-.13.05l-.14.18a.16.16 0 0 1-.18.04l-1.06-.05A.18.18 0 0 1 6.3 8l.2-.42a.18.18 0 0 0-.16-.25h-.45a.17.17 0 1 1-.08-.32l.73-.45a.2.2 0 0 1 .24.02l.37.5c.02.04.02.09 0 .13l-.04.37h.3c.05 0 .1-.04.13-.09a.17.17 0 0 0 0-.16l-.47-.97h.42zm1.68-.08l.4.2a.17.17 0 0 1-.06.33l-.48.06a.18.18 0 0 1-.17-.05.18.18 0 0 1-.04-.17l.08-.26a.19.19 0 0 1 .27-.11z" fill="var(--iconLightColor, var(--iconHoverLightColor, #0A2540))" fill-rule="nonzero"></path></svg>