<svg width="40" height="40" viewBox="0 0 40 40" fill="none" xmlns="http://www.w3.org/2000/svg"><title>Payouts logo</title><path fill-rule="evenodd" clip-rule="evenodd" d="M2 17h33a3 3 0 0 1 3 3v17a3 3 0 0 1-3 3H5a3 3 0 0 1-3-3V17z" fill="#0073E6"></path><path d="M17.77.36L3.03 11.08A2.5 2.5 0 0 0 2 13.1v24.02c0 .99.67 2.02 1.68 2.59-.5-1.1-.34-2.36.67-3.03L19.72 25.5a2.5 2.5 0 0 0 1.03-2.02V1.88A1.88 1.88 0 0 0 17.77.36z" fill="url(#product-icon-payouts-SiteMobileMenu-a)"></path><path fill-rule="evenodd" clip-rule="evenodd" d="M20.75 17v6.5c0 .8-.38 1.54-1.03 2.01L4.35 36.68c-1.01.67-1.17 1.92-.67 3.03v-.02a3.4 3.4 0 0 1-1.5-1.7 3 3 0 0 1-.18-.99V17h18.75z" fill="url(#product-icon-payouts-SiteMobileMenu-b)"></path><defs><linearGradient id="product-icon-payouts-SiteMobileMenu-a" x1="11.38" y1="2.61" x2="11.38" y2="23.3" gradientUnits="userSpaceOnUse"><stop stop-color="#11EFE3"></stop><stop offset=".33" stop-color="#15E8E2"></stop><stop offset=".74" stop-color="#1FD3E0"></stop><stop offset="1" stop-color="#21CFE0"></stop></linearGradient><linearGradient id="product-icon-payouts-SiteMobileMenu-b" x1="2" y1="25.91" x2="22.91" y2="25.91" gradientUnits="userSpaceOnUse"><stop stop-color="#0073E6"></stop><stop offset="1" stop-color="#00299C"></stop></linearGradient></defs></svg>