<svg width="40" height="40" viewBox="0 0 40 40" fill="none" xmlns="http://www.w3.org/2000/svg"><title>Sigma logo</title><path d="M5 35V7a3 3 0 0 1 5.48-1.69L21.2 21 9.32 38H8a3 3 0 0 1-3-3z" fill="url(#product-icon-sigma-SiteMobileMenu-a)"></path><path d="M8.06 4h25.16a1.5 1.5 0 0 1 1.1 2.51L21.15 21 5.84 4.92A3 3 0 0 1 8.05 4z" fill="url(#product-icon-sigma-SiteMobileMenu-b)"></path><path d="M7.88 38H33.2a1.5 1.5 0 0 0 1.11-2.51L21.11 21 7.14 36.33A1 1 0 0 0 7.88 38z" fill="#9A66FF"></path><defs><linearGradient id="product-icon-sigma-SiteMobileMenu-a" x1="13.1" y1="38" x2="13.1" y2="12.99" gradientUnits="userSpaceOnUse"><stop stop-color="#9860FE"></stop><stop offset="1" stop-color="#6E00F5"></stop></linearGradient><linearGradient id="product-icon-sigma-SiteMobileMenu-b" x1="20.28" y1="8.42" x2="20.28" y2="19.47" gradientUnits="userSpaceOnUse"><stop stop-color="#FF5091"></stop><stop offset="1" stop-color="#E03071"></stop></linearGradient></defs></svg>