<svg width="40" height="40" viewBox="0 0 40 40" fill="none" xmlns="http://www.w3.org/2000/svg"><title>Terminal logo</title><path d="M36.98 14.05l-6.31 1.36L9.33 20l-7.35 1.58A2.52 2.52 0 0 0 0 24.05v13.42C0 38.87 1.12 40 2.5 40h35c1.38 0 2.5-1.13 2.5-2.53V16.53c0-.77-.34-1.49-.93-1.97a2.48 2.48 0 0 0-2.09-.5z" fill="#9B66FF"></path><path d="M28.59 0H11.58A2.54 2.54 0 0 0 9 2.5v25c0 1.38 1.15 2.5 2.58 2.5h16.84A2.54 2.54 0 0 0 31 27.5v-25A2.5 2.5 0 0 0 28.59 0z" fill="url(#product-icon-terminal-SiteMobileMenu-a)"></path><path d="M31 15.34V27.5c0 1.38-1.15 2.5-2.58 2.5H11.58A2.54 2.54 0 0 1 9 27.5v-7.43l.33-.07 21.34-4.59.33-.07z" fill="url(#product-icon-terminal-SiteMobileMenu-b)"></path><defs><linearGradient id="product-icon-terminal-SiteMobileMenu-a" x1="20" y1="1.97" x2="20" y2="17.6" gradientUnits="userSpaceOnUse"><stop stop-color="#11EFE3"></stop><stop offset=".33" stop-color="#15E8E2"></stop><stop offset=".74" stop-color="#1FD3E0"></stop><stop offset="1" stop-color="#21CFE0"></stop></linearGradient><linearGradient id="product-icon-terminal-SiteMobileMenu-b" x1="31" y1="22.67" x2="5.34" y2="22.67" gradientUnits="userSpaceOnUse"><stop stop-color="#0048E5"></stop><stop offset=".64" stop-color="#625AF5"></stop><stop offset="1" stop-color="#8A62FC"></stop></linearGradient></defs></svg>